<svg xmlns="http://www.w3.org/2000/svg" viewBox="0 0 200 200"><defs><style>.cls-1{fill:#ddf;}</style></defs><title>icon_email</title><g id="Layer_2" data-name="Layer 2"><g id="Layer_1_copy" data-name="Layer 1 copy"><path class="cls-1" d="M100,0A100,100,0,1,0,200,100,100,100,0,0,0,100,0Zm65,135.21a8.12,8.12,0,0,1-8.12,8.13H43.13A8.12,8.12,0,0,1,35,135.21V76.76l60.07,38.15a7.52,7.52,0,0,0,4.86,1.53,10.47,10.47,0,0,0,5.32-1.78l-.38.28L165,76.57Zm-65-29.65L35,64.79a8.12,8.12,0,0,1,8.13-8.13H156.88A8.12,8.12,0,0,1,165,64.79Z"/><path class="cls-1" d="M105.25,114.67"/></g></g></svg>
